<?xml version="1.0" encoding="UTF-8"?><svg xmlns="http://www.w3.org/2000/svg" xmlns:xlink="http://www.w3.org/1999/xlink" width="375" zoomAndPan="magnify" viewBox="0 0 375 374.999991" height="374.999991" preserveAspectRatio="xMidYMid meet" version="1.0"><defs><clipPath id="clip-0"><path d="M 169.570312 204.074219 L 288.820312 204.074219 L 288.820312 300 L 169.570312 300 Z M 169.570312 204.074219 " clip-rule="nonzero"/></clipPath><clipPath id="clip-1"><path d="M 169.570312 147.378906 L 330.820312 147.378906 L 330.820312 241.128906 L 169.570312 241.128906 Z M 169.570312 147.378906 " clip-rule="nonzero"/></clipPath><clipPath id="clip-2"><path d="M 170 90.683594 L 375 90.683594 L 375 184.433594 L 170 184.433594 Z M 170 90.683594 " clip-rule="nonzero"/></clipPath><clipPath id="clip-3"><path d="M 0 90.683594 L 171.75 90.683594 L 171.75 302.183594 L 0 302.183594 Z M 0 90.683594 " clip-rule="nonzero"/></clipPath><clipPath id="clip-4"><path d="M 19.800781 119.71875 L 152.550781 119.71875 L 152.550781 252.46875 L 19.800781 252.46875 Z M 19.800781 119.71875 " clip-rule="nonzero"/></clipPath></defs><g clip-path="url(#clip-0)"><path fill="rgb(100%, 34.118652%, 34.118652%)" d="M 288.820312 204.40625 L 288.820312 263.921875 L 241.085938 263.921875 C 186.296875 263.921875 169.570312 299.738281 169.570312 299.738281 L 169.570312 239.78125 C 169.570312 239.78125 185.984375 204.40625 239.84375 204.40625 Z M 288.820312 204.40625 " fill-opacity="1" fill-rule="nonzero"/></g><g clip-path="url(#clip-1)"><path fill="rgb(78.819275%, 88.62915%, 39.608765%)" d="M 330.648438 147.378906 L 330.648438 205.90625 L 240.074219 205.90625 C 186.191406 205.90625 169.746094 241.128906 169.746094 241.128906 L 169.746094 182.164062 C 169.746094 182.164062 188.546875 147.378906 240.945312 147.378906 Z M 330.648438 147.378906 " fill-opacity="1" fill-rule="nonzero"/></g><g clip-path="url(#clip-2)"><path fill="rgb(21.958923%, 71.369934%, 100%)" d="M 374.3125 90.683594 L 374.3125 149.214844 L 240.46875 149.214844 C 191.214844 149.214844 170.328125 184.433594 170.328125 184.433594 L 170.328125 126.472656 C 170.328125 126.472656 185.167969 90.683594 250.566406 90.683594 Z M 374.3125 90.683594 " fill-opacity="1" fill-rule="nonzero"/></g><g clip-path="url(#clip-3)"><path fill="rgb(90.979004%, 90.979004%, 90.979004%)" d="M 0.59375 102.945312 L 0.59375 253.402344 C 0.59375 254.207031 0.671875 255.003906 0.828125 255.792969 C 0.984375 256.582031 1.21875 257.347656 1.527344 258.09375 C 1.832031 258.835938 2.210938 259.542969 2.65625 260.210938 C 3.105469 260.882812 3.613281 261.5 4.183594 262.070312 C 4.75 262.640625 5.371094 263.148438 6.039062 263.59375 C 6.707031 264.042969 7.414062 264.421875 8.15625 264.730469 C 8.902344 265.035156 9.667969 265.269531 10.457031 265.425781 C 11.246094 265.582031 12.042969 265.660156 12.847656 265.660156 L 98.5 265.660156 C 154.191406 265.660156 171.15625 302.183594 171.15625 302.183594 L 171.15625 126.507812 C 171.15625 126.507812 155.804688 90.683594 88.078125 90.683594 L 12.847656 90.683594 C 12.042969 90.683594 11.246094 90.761719 10.457031 90.921875 C 9.667969 91.078125 8.902344 91.308594 8.15625 91.617188 C 7.414062 91.925781 6.707031 92.304688 6.039062 92.75 C 5.371094 93.199219 4.75 93.707031 4.183594 94.277344 C 3.613281 94.84375 3.105469 95.464844 2.65625 96.132812 C 2.210938 96.804688 1.832031 97.511719 1.527344 98.253906 C 1.21875 98.996094 0.984375 99.765625 0.828125 100.554688 C 0.671875 101.34375 0.59375 102.140625 0.59375 102.945312 Z M 0.59375 102.945312 " fill-opacity="1" fill-rule="nonzero"/></g><path fill="rgb(98.429871%, 83.918762%, 21.569824%)" d="M 150.335938 186.09375 C 150.335938 221.53125 121.609375 250.257812 86.175781 250.257812 C 50.738281 250.257812 22.011719 221.53125 22.011719 186.09375 C 22.011719 150.660156 50.738281 121.933594 86.175781 121.933594 C 121.609375 121.933594 150.335938 150.660156 150.335938 186.09375 " fill-opacity="1" fill-rule="nonzero"/><path fill="rgb(90.979004%, 70.979309%, 5.488586%)" d="M 137.0625 186.09375 C 137.0625 214.199219 114.28125 236.980469 86.175781 236.980469 C 58.070312 236.980469 35.289062 214.199219 35.289062 186.09375 C 35.289062 157.988281 58.070312 135.207031 86.175781 135.207031 C 114.28125 135.207031 137.0625 157.988281 137.0625 186.09375 " fill-opacity="1" fill-rule="nonzero"/><path fill="rgb(6.269836%, 5.879211%, 5.099487%)" d="M 36.058594 179.457031 C 35.929688 179.457031 35.800781 179.445312 35.671875 179.421875 C 34.46875 179.210938 33.664062 178.066406 33.875 176.863281 C 37.71875 154.945312 55.027344 137.636719 76.941406 133.792969 C 78.144531 133.582031 79.292969 134.386719 79.503906 135.589844 C 79.714844 136.792969 78.910156 137.941406 77.707031 138.152344 C 57.617188 141.675781 41.757812 157.539062 38.234375 177.625 C 38.046875 178.699219 37.109375 179.457031 36.058594 179.457031 " fill-opacity="1" fill-rule="nonzero"/><path fill="rgb(6.269836%, 5.879211%, 5.099487%)" d="M 95.023438 238.429688 C 93.96875 238.429688 93.035156 237.671875 92.847656 236.597656 C 92.632812 235.394531 93.4375 234.246094 94.644531 234.035156 C 114.730469 230.511719 130.59375 214.648438 134.117188 194.5625 C 134.328125 193.359375 135.472656 192.554688 136.679688 192.765625 C 137.882812 192.976562 138.6875 194.125 138.472656 195.328125 C 134.632812 217.242188 117.324219 234.550781 95.40625 238.394531 C 95.277344 238.417969 95.148438 238.429688 95.023438 238.429688 " fill-opacity="1" fill-rule="nonzero"/><path fill="rgb(6.269836%, 5.879211%, 5.099487%)" d="M 37.5 186.09375 C 37.5 187.316406 36.507812 188.308594 35.289062 188.308594 C 34.066406 188.308594 33.074219 187.316406 33.074219 186.09375 C 33.074219 184.871094 34.066406 183.882812 35.289062 183.882812 C 36.507812 183.882812 37.5 184.871094 37.5 186.09375 " fill-opacity="1" fill-rule="nonzero"/><path fill="rgb(6.269836%, 5.879211%, 5.099487%)" d="M 88.386719 135.207031 C 88.386719 136.429688 87.398438 137.417969 86.175781 137.417969 C 84.953125 137.417969 83.960938 136.429688 83.960938 135.207031 C 83.960938 133.984375 84.953125 132.996094 86.175781 132.996094 C 87.398438 132.996094 88.386719 133.984375 88.386719 135.207031 " fill-opacity="1" fill-rule="nonzero"/><path fill="rgb(6.269836%, 5.879211%, 5.099487%)" d="M 139.273438 186.09375 C 139.273438 187.316406 138.285156 188.308594 137.0625 188.308594 C 135.839844 188.308594 134.851562 187.316406 134.851562 186.09375 C 134.851562 184.871094 135.839844 183.882812 137.0625 183.882812 C 138.285156 183.882812 139.273438 184.871094 139.273438 186.09375 " fill-opacity="1" fill-rule="nonzero"/><path fill="rgb(6.269836%, 5.879211%, 5.099487%)" d="M 88.386719 236.980469 C 88.386719 238.203125 87.398438 239.195312 86.175781 239.195312 C 84.953125 239.195312 83.960938 238.203125 83.960938 236.980469 C 83.960938 235.761719 84.953125 234.769531 86.175781 234.769531 C 87.398438 234.769531 88.386719 235.761719 88.386719 236.980469 " fill-opacity="1" fill-rule="nonzero"/><g clip-path="url(#clip-4)"><path fill="rgb(6.269836%, 5.879211%, 5.099487%)" d="M 86.175781 124.144531 C 69.628906 124.144531 54.070312 130.589844 42.371094 142.289062 C 30.667969 153.988281 24.226562 169.546875 24.226562 186.09375 C 24.226562 202.640625 30.667969 218.199219 42.371094 229.898438 C 54.070312 241.601562 69.628906 248.042969 86.175781 248.042969 C 102.722656 248.042969 118.28125 241.601562 129.980469 229.898438 C 141.679688 218.199219 148.125 202.640625 148.125 186.09375 C 148.125 169.546875 141.679688 153.988281 129.980469 142.289062 C 118.28125 130.589844 102.722656 124.144531 86.175781 124.144531 Z M 86.175781 252.46875 C 68.445312 252.46875 51.777344 245.566406 39.242188 233.027344 C 26.703125 220.492188 19.800781 203.824219 19.800781 186.09375 C 19.800781 168.363281 26.703125 151.695312 39.242188 139.160156 C 51.777344 126.625 68.445312 119.71875 86.175781 119.71875 C 103.902344 119.71875 120.574219 126.625 133.109375 139.160156 C 145.644531 151.695312 152.550781 168.363281 152.550781 186.09375 C 152.550781 203.824219 145.644531 220.492188 133.109375 233.027344 C 120.574219 245.566406 103.902344 252.46875 86.175781 252.46875 " fill-opacity="1" fill-rule="nonzero"/></g><path fill="rgb(6.269836%, 5.879211%, 5.099487%)" d="M 101.664062 168.394531 L 94.261719 168.394531 C 93.679688 166.746094 92.777344 165.246094 91.632812 163.96875 L 101.664062 163.96875 C 102.882812 163.96875 103.875 162.980469 103.875 161.757812 C 103.875 160.535156 102.882812 159.542969 101.664062 159.542969 L 70.6875 159.542969 C 69.464844 159.542969 68.476562 160.535156 68.476562 161.757812 C 68.476562 162.980469 69.464844 163.96875 70.6875 163.96875 L 81.75 163.96875 C 85.019531 163.96875 87.875 165.75 89.410156 168.394531 L 70.6875 168.394531 C 69.464844 168.394531 68.476562 169.386719 68.476562 170.605469 C 68.476562 171.828125 69.464844 172.820312 70.6875 172.820312 L 90.601562 172.820312 C 90.601562 177.699219 86.628906 181.667969 81.75 181.667969 L 70.6875 181.667969 C 69.828125 181.667969 69.046875 182.167969 68.683594 182.941406 C 68.320312 183.722656 68.4375 184.640625 68.988281 185.296875 L 91.113281 211.847656 C 91.550781 212.371094 92.179688 212.644531 92.8125 212.644531 C 93.3125 212.644531 93.816406 212.476562 94.230469 212.132812 C 95.167969 211.347656 95.292969 209.953125 94.511719 209.015625 L 75.410156 186.09375 L 81.75 186.09375 C 89.070312 186.09375 95.023438 180.140625 95.023438 172.820312 L 101.664062 172.820312 C 102.882812 172.820312 103.875 171.828125 103.875 170.605469 C 103.875 169.386719 102.882812 168.394531 101.664062 168.394531 " fill-opacity="1" fill-rule="nonzero"/></svg>